<svg width="12" height="7" viewBox="0 0 12 7" fill="none" xmlns="http://www.w3.org/2000/svg">
<path d="M5.29495 0.381659L0.868581 5.68416C0.777319 5.79757 0.729031 5.92615 0.72852 6.0571C0.728009 6.18806 0.775293 6.31683 0.865668 6.43061C0.956043 6.54438 1.08636 6.63919 1.24365 6.7056C1.40094 6.77202 1.57973 6.80772 1.76222 6.80916H10.615C10.7974 6.80772 10.9762 6.77202 11.1335 6.7056C11.2908 6.63919 11.4211 6.54438 11.5115 6.43061C11.6019 6.31683 11.6492 6.18806 11.6486 6.0571C11.6481 5.92615 11.5998 5.79757 11.5086 5.68416L7.08222 0.381659C6.98906 0.271449 6.85788 0.180329 6.70135 0.11709C6.54482 0.0538519 6.36822 0.0206299 6.18858 0.0206299C6.00895 0.0206299 5.83235 0.0538519 5.67582 0.11709C5.51929 0.180329 5.38811 0.271449 5.29495 0.381659Z" fill="#222222"/>
</svg>
