<svg width="20" height="17" viewBox="0 0 20 17" fill="none" xmlns="http://www.w3.org/2000/svg">
<path d="M17.3266 1.84166C16.9009 1.41583 16.3956 1.07803 15.8394 0.847565C15.2831 0.617097 14.687 0.498474 14.0849 0.498474C13.4828 0.498474 12.8867 0.617097 12.3304 0.847565C11.7742 1.07803 11.2689 1.41583 10.8432 1.84166L9.9599 2.725L9.07656 1.84166C8.21682 0.981919 7.05076 0.49892 5.8349 0.49892C4.61904 0.49892 3.45297 0.981919 2.59323 1.84166C1.73349 2.70141 1.25049 3.86747 1.25049 5.08333C1.25049 6.29919 1.73349 7.46525 2.59323 8.325L3.47656 9.20833L9.9599 15.6917L16.4432 9.20833L17.3266 8.325C17.7524 7.89937 18.0902 7.39401 18.3207 6.83779C18.5511 6.28158 18.6698 5.6854 18.6698 5.08333C18.6698 4.48126 18.5511 3.88508 18.3207 3.32887C18.0902 2.77265 17.7524 2.26729 17.3266 1.84166Z" fill="#03D8C5" stroke="#03D8C5" stroke-linecap="round" stroke-linejoin="round"/>
</svg>
