<svg width="203" height="31" viewBox="0 0 203 31" fill="none" xmlns="http://www.w3.org/2000/svg">
<g clip-path="url(#clip0_200_346)">
<path d="M3.981 6.74071L11.6747 6.72644L11.6182 8.52492H11.71C13.7271 6.72287 16.2916 6.10911 19.2801 6.10197C21.8447 6.0984 23.8688 7.34378 24.3245 8.59272C24.7166 8.41073 27.1575 6.0877 32.5586 6.07699C38.1116 6.06629 39.3515 9.32781 38.6662 12.5893L35.9145 25.7924L27.6485 25.8067L29.8316 15.3798C30.1919 13.5813 30.3084 11.9649 27.8039 11.9684C25.6633 11.972 24.607 13.7098 24.1902 15.7224L22.0955 25.8138L13.8295 25.8281L16.0126 15.4012C16.3729 13.6028 16.4894 11.9863 13.9849 11.9898C11.8443 11.9934 10.7881 13.8561 10.3712 15.8687L8.30827 25.8388L0.0105126 25.8531L3.981 6.74071Z" fill="#666666"/>
<path d="M62.0548 19.5013C59.7092 24.9003 55.4279 26.2206 49.6947 26.2278C42.8452 26.2385 38.3166 24.3258 40.0228 16.1863C41.5806 8.74617 47.1266 6.05559 53.8842 6.04132C60.6418 6.03061 64.5098 9.01023 63.1357 16.1435C62.9873 16.7822 62.7754 17.5459 62.5952 18.1239L47.448 18.1489C47.4233 20.3149 48.5078 21.2249 50.9522 21.2213C52.4606 21.2213 53.9972 20.6968 54.4176 19.5085L62.0512 19.4942L62.0548 19.5013ZM48.3771 13.824L55.8906 13.8097C55.8906 12.104 55.0711 11.3119 52.8068 11.3154C50.4824 11.319 49.186 11.9613 48.3771 13.824Z" fill="#666666"/>
<path d="M77.3609 6.61248L81.9178 6.60534L80.9004 11.5155L76.3436 11.5226L74.8776 18.4739C74.5173 20.2438 74.7928 21.0645 76.9653 21.061C77.6294 21.061 78.2935 20.9967 78.9576 20.8433L77.9685 25.6C76.2199 25.9996 74.2594 26.1852 72.3872 26.1887C68.7664 26.1959 64.9337 25.2253 66.0394 19.9226L67.8056 11.5369H64.8489L65.8663 6.63389H68.823L69.2716 4.49285L78.7068 0.117981L77.3609 6.61248Z" fill="#666666"/>
<path d="M101.986 25.6782L94.0483 25.6925L93.9847 24.5328H93.8928C91.6003 25.7853 89.2194 26.1564 86.4747 26.16C82.2499 26.1671 79.6535 24.465 80.4589 20.5326C81.7164 14.5555 89.4102 13.8418 95.9876 13.4636L96.0476 13.1888C96.468 11.2369 95.2281 10.7837 93.8716 10.7837C91.3071 10.7873 90.915 11.8863 90.7384 12.7999L82.8928 12.8141C84.1221 7.41514 89.9118 5.9735 95.1009 5.96636C104.695 5.94852 105.186 10.2449 104.169 15.1871L101.986 25.6782ZM95.1221 17.6422C94.126 17.7671 93.1016 17.9205 91.8052 18.1953C89.8446 18.6271 88.7884 18.9625 88.52 20.2436C88.3116 21.2498 89.0357 21.6459 90.6041 21.6424C92.4763 21.6424 94.5252 20.5683 94.7654 19.3479L95.1257 17.6386L95.1221 17.6422Z" fill="#666666"/>
<path d="M108.98 6.55516L117.218 6.54089V8.09671H117.31C118.786 6.87632 121.139 5.92712 123.583 5.91999C131.097 5.90571 131.86 10.5375 130.691 16.1506C129.465 21.9742 125.911 25.9744 119.542 25.9851C116.013 25.9923 114.745 25.2607 113.593 24.2901H113.533L112.187 30.8453L103.95 30.8596L108.976 6.55873L108.98 6.55516ZM115.183 16.4825C114.586 19.3479 115.342 20.6896 117.726 20.6825C119.627 20.6825 121.435 19.4264 122.064 16.4682L122.184 15.8901C122.785 12.964 121.605 11.6865 119.581 11.6901C117.196 11.6937 115.904 12.9783 115.303 15.9044L115.183 16.4825Z" fill="#666666"/>
<path d="M136.155 0.0142736L144.725 0L143.111 7.77555H143.202C145.223 6.55159 147.332 5.87716 150.532 5.87359C154.605 5.86646 157.837 7.90402 156.94 12.2039L154.157 25.589L145.619 25.6033L147.773 15.2371C148.222 13.0425 148.25 11.5795 145.714 11.583C144.386 11.583 142.065 12.807 141.588 15.155L139.402 25.614L130.832 25.6283L136.155 0.0142736Z" fill="#666666"/>
<path d="M181.805 15.9365C180.099 24.0796 174.762 26.0065 167.944 26.0208C161.094 26.0315 156.566 24.1189 158.272 15.9793C159.83 8.5392 165.376 5.84863 172.133 5.83435C178.891 5.82365 183.363 8.49638 181.805 15.9365ZM174.08 16.0721L174.168 15.6153C174.825 12.5037 174.069 11.1049 171.052 11.1085C168.036 11.1156 166.679 12.518 166.022 15.6296L165.934 16.0864C165.273 19.2266 166.213 20.6896 169.05 20.6825C171.886 20.6789 173.423 19.2123 174.08 16.0721Z" fill="#666666"/>
<path d="M185.892 6.41955L193.766 6.40528L193.618 8.53918H193.71C195.154 7.13323 197.207 5.91284 200.556 5.9057C201.432 5.9057 202.216 6.02346 203 6.20545L201.682 12.6393C200.866 12.3681 200.142 12.154 198.422 12.1575C194.981 12.1647 192.872 13.8133 192.003 17.9919L190.449 25.5248L181.911 25.5391L185.892 6.41955Z" fill="#666666"/>
</g>
<defs>
<clipPath id="clip0_200_346">
<rect width="203" height="30.856" fill="white"/>
</clipPath>
</defs>
</svg>
