<svg width="203" height="32" viewBox="0 0 203 32" fill="none" xmlns="http://www.w3.org/2000/svg">
<g clip-path="url(#clip0_202_170)">
<path d="M3.98099 7.31267L11.6747 7.2984L11.6182 9.09688H11.71C13.727 7.29483 16.2916 6.68107 19.2801 6.67393C21.8446 6.67036 23.8687 7.91574 24.3244 9.16468C24.7165 8.98269 27.1575 6.65966 32.5586 6.64895C38.1116 6.63825 39.3515 9.89977 38.6662 13.1613L35.9144 26.3644L27.6485 26.3787L29.8315 15.9518C30.1919 14.1533 30.3084 12.5368 27.8039 12.5404C25.6632 12.544 24.607 14.2818 24.1902 16.2944L22.0955 26.3858L13.8295 26.4001L16.0126 15.9732C16.3729 14.1747 16.4894 12.5582 13.9849 12.5618C11.8442 12.5654 10.788 14.4281 10.3712 16.4407L8.30825 26.4108L0.010498 26.4251L3.98099 7.31267Z" fill="#666666"/>
<path d="M62.0547 20.0733C59.7092 25.4723 55.4278 26.7926 49.6947 26.7998C42.8452 26.8105 38.3166 24.8978 40.0228 16.7583C41.5806 9.31816 47.1266 6.62758 53.8842 6.61331C60.6418 6.6026 64.5098 9.58222 63.1357 16.7155C62.9873 17.3542 62.7754 18.1178 62.5952 18.6959L47.448 18.7209C47.4233 20.8869 48.5078 21.7969 50.9522 21.7933C52.4606 21.7933 53.9972 21.2687 54.4176 20.0805L62.0512 20.0662L62.0547 20.0733ZM48.377 14.396L55.8906 14.3817C55.8906 12.676 55.0711 11.8838 52.8068 11.8874C50.4824 11.891 49.186 12.5333 48.377 14.396Z" fill="#666666"/>
<path d="M77.3609 7.18444L81.9177 7.1773L80.9004 12.0874L76.3435 12.0946L74.8775 19.0458C74.5172 20.8157 74.7928 21.6365 76.9652 21.6329C77.6293 21.6329 78.2934 21.5687 78.9575 21.4152L77.9684 26.1719C76.2199 26.5716 74.2594 26.7571 72.3872 26.7607C68.7664 26.7678 64.9337 25.7972 66.0393 20.4946L67.8055 12.1088H64.8489L65.8662 7.20585H68.8229L69.2715 5.06481L78.7067 0.689941L77.3609 7.18444Z" fill="#666666"/>
<path d="M101.986 26.25L94.0482 26.2643L93.9846 25.1046H93.8928C91.6002 26.3571 89.2194 26.7282 86.4746 26.7317C82.2498 26.7389 79.6534 25.0368 80.4588 21.1044C81.7164 15.1273 89.4101 14.4136 95.9876 14.0354L96.0476 13.7606C96.468 11.8087 95.2281 11.3555 93.8716 11.3555C91.307 11.3591 90.9149 12.4581 90.7383 13.3716L82.8927 13.3859C84.122 7.98691 89.9117 6.54528 95.1009 6.53814C104.695 6.5203 105.186 10.8167 104.169 15.7589L101.986 26.25ZM95.1221 18.214C94.1259 18.3389 93.1015 18.4923 91.8051 18.7671C89.8446 19.1988 88.7884 19.5343 88.5199 20.8153C88.3115 21.8216 89.0357 22.2177 90.6041 22.2141C92.4763 22.2141 94.5251 21.1401 94.7653 19.9197L95.1256 18.2104L95.1221 18.214Z" fill="#666666"/>
<path d="M108.98 7.12691L117.218 7.11263V8.66846H117.309C118.786 7.44806 121.139 6.49887 123.583 6.49173C131.097 6.47746 131.86 11.1092 130.69 16.7223C129.465 22.546 125.911 26.5462 119.542 26.5569C116.013 26.564 114.745 25.8325 113.593 24.8619H113.533L112.187 31.417L103.95 31.4313L108.976 7.13048L108.98 7.12691ZM115.183 17.0542C114.586 19.9196 115.342 21.2614 117.726 21.2542C119.627 21.2542 121.435 19.9981 122.064 17.0399L122.184 16.4619C122.785 13.5358 121.605 12.2583 119.581 12.2618C117.196 12.2654 115.904 13.55 115.303 16.4761L115.183 17.0542Z" fill="#666666"/>
<path d="M136.155 0.586051L144.725 0.571777L143.111 8.34733H143.202C145.223 7.12337 147.332 6.44894 150.532 6.44537C154.605 6.43823 157.837 8.47579 156.94 12.7757L154.157 26.1608L145.619 26.1751L147.773 15.8089C148.222 13.6143 148.25 12.1513 145.714 12.1548C144.386 12.1548 142.065 13.3788 141.588 15.7268L139.402 26.1858L130.832 26.2001L136.155 0.586051Z" fill="#666666"/>
<path d="M181.805 16.5084C180.099 24.6515 174.761 26.5785 167.944 26.5927C161.094 26.6035 156.566 24.6908 158.272 16.5513C159.83 9.11113 165.376 6.42056 172.133 6.40628C178.891 6.39558 183.363 9.06831 181.805 16.5084ZM174.08 16.644L174.168 16.1873C174.825 13.0756 174.069 11.6768 171.052 11.6804C168.036 11.6875 166.679 13.0899 166.022 16.2016L165.934 16.6583C165.273 19.7985 166.213 21.2616 169.049 21.2544C171.886 21.2508 173.423 19.7842 174.08 16.644Z" fill="#666666"/>
<path d="M185.892 6.99139L193.766 6.97712L193.618 9.11102H193.71C195.154 7.70507 197.207 6.48468 200.555 6.47754C201.432 6.47754 202.216 6.5953 203 6.77729L201.682 13.2111C200.866 12.9399 200.142 12.7258 198.422 12.7294C194.981 12.7365 192.872 14.3851 192.003 18.5637L190.449 26.0966L181.911 26.1109L185.892 6.99139Z" fill="#666666"/>
</g>
<defs>
<clipPath id="clip0_202_170">
<rect width="203" height="30.856" fill="white" transform="translate(0 0.571777)"/>
</clipPath>
</defs>
</svg>
