<?xml version="1.0" encoding="utf-8"?>
<!-- Generator: Adobe Illustrator 25.0.0, SVG Export Plug-In . SVG Version: 6.00 Build 0)  -->
<svg version="1.1" id="Layer_1" xmlns="http://www.w3.org/2000/svg" xmlns:xlink="http://www.w3.org/1999/xlink" x="0px" y="0px"
	 viewBox="0 0 197 30" style="enable-background:new 0 0 197 30;" xml:space="preserve">
<style type="text/css">
	.st0{clip-path:url(#SVGID_2_);}
	.st1{fill:#03D8C5;}
	.st2{fill:#FFFFFF;}
</style>
<g>
	<defs>
		<rect id="SVGID_1_" y="0" width="197" height="29.9"/>
	</defs>
	<clipPath id="SVGID_2_">
		<use xlink:href="#SVGID_1_"  style="overflow:visible;"/>
	</clipPath>
	<g class="st0">
		<path class="st1" d="M3.9,6.5l7.5,0l-0.1,1.7h0.1c2-1.7,4.4-2.3,7.3-2.4c2.5,0,4.5,1.2,4.9,2.4c0.4-0.2,2.7-2.4,8-2.4
			c5.4,0,6.6,3.2,5.9,6.3L34.9,25l-8,0l2.1-10.1c0.3-1.7,0.5-3.3-2-3.3c-2.1,0-3.1,1.7-3.5,3.6l-2,9.8l-8,0l2.1-10.1
			c0.3-1.7,0.5-3.3-2-3.3c-2.1,0-3.1,1.8-3.5,3.8l-2,9.7l-8.1,0L3.9,6.5z"/>
		<path class="st1" d="M60.2,18.9c-2.3,5.2-6.4,6.5-12,6.5c-6.6,0-11-1.8-9.4-9.7c1.5-7.2,6.9-9.8,13.5-9.8c6.6,0,10.3,2.9,9,9.8
			c-0.1,0.6-0.3,1.4-0.5,1.9l-14.7,0c0,2.1,1,3,3.4,3c1.5,0,3-0.5,3.4-1.7L60.2,18.9L60.2,18.9z M46.9,13.4l7.3,0
			c0-1.7-0.8-2.4-3-2.4C49,11,47.7,11.6,46.9,13.4z"/>
		<path class="st1" d="M75.1,6.4l4.4,0l-1,4.8l-4.4,0l-1.4,6.7c-0.3,1.7-0.1,2.5,2,2.5c0.6,0,1.3-0.1,1.9-0.2l-1,4.6
			c-1.7,0.4-3.6,0.6-5.4,0.6c-3.5,0-7.2-0.9-6.2-6.1l1.7-8.1h-2.9l1-4.8h2.9l0.4-2.1l9.2-4.2L75.1,6.4z"/>
		<path class="st1" d="M99,24.9l-7.7,0l-0.1-1.1h-0.1c-2.2,1.2-4.5,1.6-7.2,1.6c-4.1,0-6.6-1.6-5.8-5.5c1.2-5.8,8.7-6.5,15.1-6.9
			l0.1-0.3c0.4-1.9-0.8-2.3-2.1-2.3c-2.5,0-2.9,1.1-3,2l-7.6,0c1.2-5.2,6.8-6.6,11.8-6.6c9.3,0,9.8,4.2,8.8,8.9L99,24.9z M92.3,17.1
			c-1,0.1-2,0.3-3.2,0.5c-1.9,0.4-2.9,0.7-3.2,2c-0.2,1,0.5,1.4,2,1.4c1.8,0,3.8-1,4-2.2L92.3,17.1L92.3,17.1z"/>
		<path class="st2" d="M105.8,6.4l8,0v1.5h0.1c1.4-1.2,3.7-2.1,6.1-2.1c7.3,0,8,4.5,6.9,9.9c-1.2,5.7-4.6,9.5-10.8,9.5
			c-3.4,0-4.7-0.7-5.8-1.6h-0.1l-1.3,6.4l-8,0L105.8,6.4L105.8,6.4z M111.8,16c-0.6,2.8,0.2,4.1,2.5,4.1c1.8,0,3.6-1.2,4.2-4.1
			l0.1-0.6c0.6-2.8-0.6-4.1-2.5-4.1c-2.3,0-3.6,1.3-4.2,4.1L111.8,16z"/>
		<path class="st2" d="M132.1,0l8.3,0l-1.6,7.5h0.1c2-1.2,4-1.8,7.1-1.8c4,0,7.1,2,6.2,6.1l-2.7,13l-8.3,0l2.1-10.1
			c0.4-2.1,0.5-3.5-2-3.5c-1.3,0-3.5,1.2-4,3.5l-2.1,10.1l-8.3,0L132.1,0z"/>
		<path class="st2" d="M176.4,15.5c-1.7,7.9-6.8,9.8-13.5,9.8c-6.6,0-11-1.8-9.4-9.7c1.5-7.2,6.9-9.8,13.5-9.8
			C173.6,5.7,177.9,8.2,176.4,15.5z M168.9,15.6l0.1-0.4c0.6-3-0.1-4.4-3-4.4c-2.9,0-4.2,1.4-4.9,4.4l-0.1,0.4c-0.6,3,0.3,4.5,3,4.5
			C166.8,20.1,168.3,18.6,168.9,15.6z"/>
		<path class="st2" d="M180.4,6.2l7.6,0l-0.1,2.1h0.1c1.4-1.4,3.4-2.5,6.6-2.6c0.8,0,1.6,0.1,2.4,0.3l-1.3,6.2
			c-0.8-0.3-1.5-0.5-3.2-0.5c-3.3,0-5.4,1.6-6.2,5.7l-1.5,7.3l-8.3,0L180.4,6.2z"/>
	</g>
</g>
</svg>
